<svg width="272" height="272" viewBox="0 0 272 272" fill="none" xmlns="http://www.w3.org/2000/svg">
<g filter="url(#filter0_d_224_59)">
<path d="M136 91.146C115.605 91.146 99.146 107.605 99.146 128C99.146 148.394 115.605 164.854 136 164.854C156.394 164.854 172.854 148.394 172.854 128C172.854 107.605 156.394 91.146 136 91.146ZM136 151.952C122.811 151.952 112.048 141.189 112.048 128C112.048 114.811 122.811 104.048 136 104.048C149.189 104.048 159.952 114.811 159.952 128C159.952 141.189 149.189 151.952 136 151.952ZM174.363 81.0476C169.602 81.0476 165.756 84.8929 165.756 89.6546C165.756 94.4164 169.602 98.2617 174.363 98.2617C179.125 98.2617 182.97 94.4343 182.97 89.6546C182.972 88.5239 182.75 87.4041 182.318 86.3592C181.886 85.3143 181.252 84.3649 180.452 83.5654C179.653 82.7659 178.704 82.1319 177.659 81.6999C176.614 81.2678 175.494 81.0462 174.363 81.0476ZM207.839 128C207.839 118.081 207.929 108.252 207.372 98.3515C206.815 86.8515 204.191 76.6453 195.782 68.2359C187.355 59.8086 177.166 57.2031 165.666 56.6461C155.748 56.089 145.919 56.1789 136.018 56.1789C126.099 56.1789 116.27 56.089 106.369 56.6461C94.8695 57.2031 84.6632 59.8265 76.2538 68.2359C67.8265 76.6632 65.221 86.8515 64.664 98.3515C64.107 108.27 64.1968 118.099 64.1968 128C64.1968 137.901 64.107 147.748 64.664 157.648C65.221 169.148 67.8445 179.355 76.2538 187.764C84.6812 196.191 94.8695 198.797 106.369 199.354C116.288 199.911 126.117 199.821 136.018 199.821C145.937 199.821 155.766 199.911 165.666 199.354C177.166 198.797 187.373 196.173 195.782 187.764C204.209 179.337 206.815 169.148 207.372 157.648C207.947 147.748 207.839 137.919 207.839 128ZM192.027 170.37C190.715 173.641 189.134 176.084 186.6 178.6C184.066 181.134 181.641 182.715 178.37 184.026C168.919 187.782 146.476 186.937 136 186.937C125.524 186.937 103.063 187.782 93.6117 184.044C90.3413 182.733 87.8976 181.151 85.382 178.618C82.8484 176.084 81.2671 173.659 79.9554 170.388C76.2179 160.919 77.0624 138.476 77.0624 128C77.0624 117.524 76.2179 95.0632 79.9554 85.6117C81.2671 82.3414 82.8484 79.8976 85.382 77.382C87.9156 74.8664 90.3413 73.2671 93.6117 71.9554C103.063 68.2179 125.524 69.0625 136 69.0625C146.476 69.0625 168.937 68.2179 178.388 71.9554C181.659 73.2671 184.102 74.8484 186.618 77.382C189.152 79.9156 190.733 82.3414 192.044 85.6117C195.782 95.0632 194.937 117.524 194.937 128C194.937 138.476 195.782 160.919 192.027 170.37Z" fill="#181818"/>
<path d="M174.363 87.0476L174.371 87.0476C174.712 87.0472 175.05 87.1141 175.366 87.2446C175.682 87.3751 175.968 87.5665 176.21 87.808C176.451 88.0495 176.643 88.3362 176.773 88.6518L182.191 86.4118L176.773 88.6518C176.904 88.9674 176.971 89.3056 176.97 89.6471V89.6546C176.97 91.1124 175.819 92.2617 174.363 92.2617C172.915 92.2617 171.756 91.1026 171.756 89.6546C171.756 88.2066 172.915 87.0476 174.363 87.0476ZM201.379 98.6418L201.38 98.6652L201.381 98.6885C201.86 107.196 201.851 115.65 201.842 124.357C201.84 125.566 201.839 126.78 201.839 128C201.839 129.37 201.841 130.731 201.843 132.087C201.855 140.644 201.867 148.944 201.382 157.3L201.38 157.329L201.379 157.358C200.858 168.106 198.486 176.574 191.539 183.521C184.609 190.452 176.122 192.84 165.376 193.361L165.353 193.362L165.329 193.363C156.821 193.842 148.368 193.833 139.66 193.824C138.451 193.822 137.237 193.821 136.018 193.821C134.801 193.821 133.589 193.822 132.382 193.824C123.687 193.833 115.23 193.842 106.706 193.363L106.683 193.362L106.66 193.361C95.9114 192.84 87.4436 190.468 80.4965 183.521C73.5661 176.591 71.1775 168.104 70.657 157.358L70.6558 157.335L70.6545 157.311C70.1758 148.803 70.1849 140.335 70.1942 131.636C70.1955 130.429 70.1968 129.217 70.1968 128C70.1968 126.783 70.1955 125.571 70.1942 124.364C70.1849 115.668 70.1758 107.212 70.6546 98.6879L70.6559 98.6649L70.657 98.6418C71.1776 87.8934 73.5494 79.4256 80.4965 72.4785C87.4269 65.5482 95.914 63.1595 106.66 62.639L106.683 62.6379L106.707 62.6366C115.215 62.1579 123.668 62.167 132.376 62.1763C133.585 62.1776 134.798 62.1789 136.018 62.1789C137.235 62.1789 138.447 62.1776 139.654 62.1763C148.349 62.167 156.805 62.1579 165.33 62.6366L165.353 62.6379L165.376 62.639C176.124 63.1597 184.592 65.5314 191.539 72.4785C198.47 79.4089 200.858 87.896 201.379 98.6418ZM197.595 172.604L197.599 172.595L197.602 172.586C199.923 166.746 200.633 157.749 200.887 149.76C201.078 143.792 201.018 137.664 200.971 132.834C200.953 131.012 200.937 129.374 200.937 128C200.937 126.622 200.953 124.978 200.971 123.148C201.018 118.32 201.078 112.196 200.89 106.232C200.637 98.2401 199.932 89.2418 197.624 83.4053L197.619 83.3917L197.613 83.378C196.006 79.3716 193.981 76.2613 190.869 73.1476C187.755 70.0133 184.616 67.9887 180.622 66.3867L180.608 66.3812L180.595 66.3758C174.758 64.0679 165.76 63.3628 157.768 63.1104C151.804 62.922 145.68 62.9816 140.852 63.0286C139.022 63.0465 137.378 63.0625 136 63.0625C134.622 63.0625 132.978 63.0465 131.148 63.0286C126.32 62.9816 120.196 62.922 114.232 63.1104C106.24 63.3628 97.2418 64.0679 91.4053 66.3758L91.3916 66.3812L91.378 66.3867C87.3524 68.0014 84.2508 70.0499 81.1545 73.1243C78.0162 76.2402 75.9898 79.3811 74.3867 83.378L74.3812 83.3917L74.3758 83.4053C72.0678 89.2418 71.3628 98.2401 71.1104 106.232C70.922 112.196 70.9816 118.32 71.0286 123.148C71.0464 124.978 71.0624 126.622 71.0624 128C71.0624 129.378 71.0464 131.022 71.0286 132.852C70.9816 137.678 70.922 143.799 71.1104 149.761C71.3629 157.753 72.0682 166.748 74.3744 172.591L74.3805 172.606L74.3867 172.622C75.9938 176.629 78.0199 179.739 81.1324 182.854C84.2457 185.987 87.3845 188.011 91.378 189.613L91.3916 189.619L91.4053 189.624C97.2418 191.932 106.24 192.637 114.232 192.89C120.196 193.078 126.32 193.018 131.148 192.971C132.978 192.953 134.622 192.937 136 192.937C137.374 192.937 139.012 192.953 140.834 192.971C145.664 193.018 151.792 193.077 157.76 192.887C165.749 192.633 174.746 191.923 180.586 189.602L180.595 189.599L180.604 189.595C184.61 187.988 187.72 185.963 190.834 182.851C193.968 179.737 195.993 176.598 197.595 172.604ZM105.146 128C105.146 110.919 118.919 97.146 136 97.146C153.081 97.146 166.854 110.919 166.854 128C166.854 145.081 153.081 158.854 136 158.854C118.919 158.854 105.146 145.081 105.146 128ZM106.048 128C106.048 144.503 119.497 157.952 136 157.952C152.503 157.952 165.952 144.503 165.952 128C165.952 111.497 152.503 98.0476 136 98.0476C119.497 98.0476 106.048 111.497 106.048 128Z" stroke="url(#paint0_linear_224_59)" stroke-width="12"/>
</g>
<defs>
<filter id="filter0_d_224_59" x="0.191467" y="0.173523" width="271.656" height="271.653" filterUnits="userSpaceOnUse" color-interpolation-filters="sRGB">
<feFlood flood-opacity="0" result="BackgroundImageFix"/>
<feColorMatrix in="SourceAlpha" type="matrix" values="0 0 0 0 0 0 0 0 0 0 0 0 0 0 0 0 0 0 127 0" result="hardAlpha"/>
<feOffset dy="8"/>
<feGaussianBlur stdDeviation="32"/>
<feComposite in2="hardAlpha" operator="out"/>
<feColorMatrix type="matrix" values="0 0 0 0 1 0 0 0 0 0.898039 0 0 0 0 0 0 0 0 0.35 0"/>
<feBlend mode="normal" in2="BackgroundImageFix" result="effect1_dropShadow_224_59"/>
<feBlend mode="normal" in="SourceGraphic" in2="effect1_dropShadow_224_59" result="shape"/>
</filter>
<linearGradient id="paint0_linear_224_59" x1="64.1915" y1="199.826" x2="227.724" y2="171.687" gradientUnits="userSpaceOnUse">
<stop stop-color="#FFE600"/>
<stop offset="1" stop-color="#FFED4D"/>
</linearGradient>
</defs>
</svg>
