<svg width="64" height="65" viewBox="0 0 64 65" fill="none" xmlns="http://www.w3.org/2000/svg">
<rect y="0.5" width="64" height="64" rx="16" fill="url(#paint0_linear_173_777)"/>
<g clip-path="url(#clip0_173_777)">
<path d="M32 17.8335V47.1668" stroke="url(#paint1_linear_173_777)" stroke-width="2" stroke-linecap="round" stroke-linejoin="round"/>
<path d="M38.6667 23.1665H28.6667C27.429 23.1665 26.242 23.6582 25.3668 24.5333C24.4917 25.4085 24 26.5955 24 27.8332C24 29.0708 24.4917 30.2578 25.3668 31.133C26.242 32.0082 27.429 32.4998 28.6667 32.4998H35.3333C36.571 32.4998 37.758 32.9915 38.6332 33.8667C39.5083 34.7418 40 35.9288 40 37.1665C40 38.4042 39.5083 39.5912 38.6332 40.4663C37.758 41.3415 36.571 41.8332 35.3333 41.8332H24" stroke="url(#paint2_linear_173_777)" stroke-width="2" stroke-linecap="round" stroke-linejoin="round"/>
</g>
<defs>
<linearGradient id="paint0_linear_173_777" x1="-9.53674e-07" y1="64.5" x2="77.1834" y2="35.042" gradientUnits="userSpaceOnUse">
<stop stop-color="#242529"/>
<stop offset="1" stop-color="#1B1C1F"/>
</linearGradient>
<linearGradient id="paint1_linear_173_777" x1="32" y1="47.1668" x2="33.172" y2="47.16" gradientUnits="userSpaceOnUse">
<stop stop-color="#FFE600"/>
<stop offset="1" stop-color="#FFED4D"/>
</linearGradient>
<linearGradient id="paint2_linear_173_777" x1="24" y1="41.8332" x2="42.3539" y2="39.1262" gradientUnits="userSpaceOnUse">
<stop stop-color="#FFE600"/>
<stop offset="1" stop-color="#FFED4D"/>
</linearGradient>
<clipPath id="clip0_173_777">
<rect width="32" height="32" fill="white" transform="translate(16 16.5)"/>
</clipPath>
</defs>
</svg>
