<svg width="21" height="17" viewBox="0 0 21 17" fill="none" xmlns="http://www.w3.org/2000/svg">
<path d="M18.8449 0.683336L18.8582 0.678225L18.8711 0.672369C19.1347 0.553122 19.3003 0.616571 19.3778 0.691457C19.4619 0.772811 19.591 1.012 19.4619 1.52983L19.4597 1.5384L19.4579 1.54704L16.4389 15.775L16.4385 15.7768C16.3469 16.2161 16.199 16.3379 16.1276 16.37C16.0551 16.4026 15.8772 16.4265 15.529 16.2409L10.9581 12.8646L10.6167 12.6125L10.3124 12.9084L8.10278 15.057C8.10261 15.0572 8.10244 15.0574 8.10227 15.0575C8.09595 15.0636 8.08979 15.0696 8.08375 15.0754L8.32843 11.4192L16.7079 3.85675C16.7085 3.85627 16.709 3.85579 16.7095 3.85531C16.8313 3.7469 17.0029 3.55556 17.013 3.28897C17.0187 3.13738 16.969 2.99105 16.8714 2.87483C16.7805 2.76652 16.6683 2.70753 16.5759 2.67579C16.3968 2.6143 16.2066 2.62399 16.0487 2.65671C15.8812 2.69141 15.7063 2.76076 15.5371 2.86367L15.5371 2.86361L15.5302 2.86795L5.19348 9.38974L0.861898 8.03851L0.8619 8.0385L0.859666 8.03781C0.678527 7.98224 0.575042 7.92176 0.523551 7.87974C0.53652 7.86408 0.555518 7.84392 0.583102 7.81952C0.680219 7.73365 0.850155 7.62702 1.11824 7.51905L18.8449 0.683336Z" fill="white" stroke="white"/>
</svg>
